<svg width="29" height="30" viewBox="0 0 29 30" fill="none" xmlns="http://www.w3.org/2000/svg">
<path fill-rule="evenodd" clip-rule="evenodd" d="M13.5391 15.6944L4.91848 24.7069C2.37146 22.3558 1 19.0251 1 15.6944C1 8.6411 6.6818 3.1552 13.5391 3.1552V15.6944Z" fill="#E7D265" stroke="black" stroke-width="0.5" stroke-miterlimit="22.9256"/>
<path d="M13.5392 6.29011L8.64105 4.13493" stroke="black" stroke-width="0.5" stroke-miterlimit="22.9256"/>
<path d="M13.5394 13.5393L2.95947 9.03305" stroke="black" stroke-width="0.5" stroke-miterlimit="22.9256"/>
<path d="M10.0125 19.4171L1 15.4986" stroke="black" stroke-width="0.5" stroke-miterlimit="22.9256"/>
<path d="M13.5394 10.2087L5.11469 6.48615" stroke="black" stroke-width="0.5" stroke-miterlimit="22.9256"/>
<path d="M12.1672 17.0659L1.39142 12.3637" stroke="black" stroke-width="0.5" stroke-miterlimit="22.9256"/>
<path d="M7.26993 22.1601L1.78406 19.809" stroke="black" stroke-width="0.5" stroke-miterlimit="22.9256"/>
<path d="M13.5389 8.24947L6.68152 5.11469" stroke="black" stroke-width="0.5" stroke-miterlimit="22.9256"/>
<path d="M13.5391 15.6946L2.17548 10.6005" stroke="black" stroke-width="0.5" stroke-miterlimit="22.9256"/>
<path d="M8.64079 20.7886L1.19568 17.6538" stroke="black" stroke-width="0.5" stroke-miterlimit="22.9256"/>
<path d="M13.5395 11.9719L3.93921 7.66159" stroke="black" stroke-width="0.5" stroke-miterlimit="22.9256"/>
<path d="M11.1878 18.2415L1.19568 13.9312" stroke="black" stroke-width="0.5" stroke-miterlimit="22.9256"/>
<path d="M6.0945 23.5313L2.76379 21.9639" stroke="black" stroke-width="0.5" stroke-miterlimit="22.9256"/>
<path fill-rule="evenodd" clip-rule="evenodd" d="M13.5395 17.4575L21.3765 26.6659C19.0254 28.0374 16.4784 28.8211 13.5395 28.8211C10.9925 28.8211 8.24959 28.2333 6.09442 26.8619L13.5395 17.4575Z" fill="#FD5E96" stroke="black" stroke-width="0.5" stroke-miterlimit="22.9256"/>
<path fill-rule="evenodd" clip-rule="evenodd" d="M14.5183 15.6943H26.4697C26.2737 17.8495 25.4901 20.0047 24.3145 21.768C23.7267 22.7476 22.943 23.7272 21.9634 24.7068L14.5183 15.6943Z" fill="#50DEC6" stroke="black" stroke-width="0.5" stroke-miterlimit="22.9256"/>
<path fill-rule="evenodd" clip-rule="evenodd" d="M15.1066 6.87771L15.3026 1C19.6129 1.7837 23.5314 4.33072 25.6865 7.85735C27.058 9.81659 27.6458 11.7758 27.8417 13.931L21.5721 13.7351C21.5721 10.0125 18.6333 7.07363 15.1066 6.87771Z" fill="#5886FE" stroke="black" stroke-width="0.5" stroke-miterlimit="22.9256"/>
</svg>
