<svg width="322" height="314" viewBox="0 0 322 314" fill="none" xmlns="http://www.w3.org/2000/svg">
<path fill-rule="evenodd" clip-rule="evenodd" d="M279.877 217.669C249.281 213.309 223.217 226.198 222.748 205.534C222.133 177.516 219.633 181.625 268.656 181.625C268.676 177.788 268.607 178.159 269.633 175.347C273.803 177.064 273.48 173.217 273.529 181.374C274.691 181.635 275.756 181.515 276.576 181.736L279.379 182.861C280.385 181.505 279.877 211.893 279.877 217.669ZM78.6074 212.224L83.0215 212.817L83.1485 203.655L83.1289 195.327L83.1777 192.484L90.082 192.474L89.8281 179.234H83.1874L83.0019 165.753L147.328 165.743L146.918 178.692L154.154 179.325L153.715 192.645L147.367 192.846L146.918 219.367C143.519 219.447 144.398 218.643 142.201 220.542L141.928 231.592L147.26 232.717L146.898 245.947L142.074 245.957C140.238 254.768 141.215 252.065 145.873 254.687C143.773 258.063 142.641 255.22 141.791 258.706C142.113 258.796 143.637 259.007 143.92 259.107C144.154 259.188 144.457 259.278 144.711 259.378L147.504 268.068L279.838 268.329L279.877 217.669L285.17 214.846L285.209 178.35L279.818 176.341L279.896 157.897L279.838 134.25H99.7305C87.1621 134.26 87.6113 135.174 78.1289 130.262L78.6074 212.224Z" fill="#D1553E"/>
<path fill-rule="evenodd" clip-rule="evenodd" d="M71.0977 220.914C84.9355 215.981 96.1075 226.308 99.0079 237.348C106.84 267.094 63.2852 281.198 54.1739 249.514C50.6289 237.198 57.3574 225.816 71.0977 220.914ZM83.129 195.327L89.2423 195.307V203.706L83.1485 203.655L83.0216 212.817L78.6075 212.224L74.9845 212.174C41.4005 216.614 38.5781 254.295 58.6563 268.842C70.7168 277.581 84.5548 272.9 99.7305 272.85C111.371 272.82 137.26 274.206 147.133 272.368L147.504 268.068L144.711 259.378C144.457 259.278 144.154 259.188 143.92 259.107C143.637 259.007 142.113 258.796 141.791 258.705C142.641 255.22 143.773 258.063 145.873 254.687C141.215 252.065 140.238 254.768 142.074 245.957L146.898 245.947L147.26 232.717L141.928 231.592L142.201 220.542C144.398 218.643 143.52 219.447 146.918 219.367L147.367 192.846L153.715 192.645L154.154 179.325L146.918 178.692L147.328 165.743L83.002 165.753L83.1875 179.234H89.8282L90.0821 192.474L83.1777 192.484L83.129 195.327Z" fill="#FFBF2C"/>
<path fill-rule="evenodd" clip-rule="evenodd" d="M74.9844 212.174L78.6074 212.224L78.1289 130.262C87.6114 135.174 87.1621 134.26 99.7305 134.25H279.838L279.818 126.183C275.199 126.183 270.395 126.846 266.762 125.068C251.811 117.715 253.744 125.168 244.262 126.153C240.463 126.545 233.617 126.243 229.643 126.063L223.031 126.113L211.02 126.133L204.047 126.032L193.314 126.153L185.648 126.193L151.283 126.143L130.355 125.972C119.516 126.585 107.758 126.083 96.791 126.143C89.5547 126.183 82.543 126.394 78.3633 120.005C77.8946 119.292 77.4454 118.317 76.9278 117.393L75.7071 115.344C75.6387 114.952 75.4238 114.872 75.2578 114.651L74.9844 212.174Z" fill="#EB7F60"/>
<path fill-rule="evenodd" clip-rule="evenodd" d="M247.963 204.469C242.582 214.515 226.244 206.538 232.406 195.317C237.641 185.784 253.774 193.61 247.963 204.469ZM279.877 217.669C279.877 211.893 280.385 181.505 279.379 182.861L276.576 181.736C275.756 181.515 274.691 181.635 273.529 181.374C273.48 173.217 273.803 177.064 269.633 175.347C268.607 178.159 268.676 177.788 268.656 181.625C219.633 181.625 222.133 177.516 222.748 205.534C223.217 226.198 249.281 213.309 279.877 217.669Z" fill="#E8664D"/>
<path fill-rule="evenodd" clip-rule="evenodd" d="M213.08 111.476L205.365 117.273C202.299 119.463 200.727 120.779 197.553 122.547L193.314 126.153L204.047 126.032L240.385 100.064C244.066 97.6434 249.145 93.4042 253.148 91.8471C255.15 96.1265 258.129 99.8233 260.443 103.741C256.156 107.639 250.346 111.004 244.984 114.842C241.557 117.293 231.547 123.772 229.643 126.063C233.617 126.243 240.463 126.545 244.262 126.153C253.744 125.168 251.811 117.715 266.762 125.068C270.395 126.846 275.199 126.183 279.818 126.183L279.838 134.25L279.897 157.897C285.258 153.166 299.418 148.866 294.672 139.614C293.07 136.49 289.525 132 287.475 128.875C284.897 124.927 282.377 121.281 279.975 116.991C275.336 110.763 269.359 102.295 265.512 95.1822L256.059 81.9421C249.066 85.7092 241.547 91.8269 234.399 96.8899C228.363 101.169 219.496 108 213.08 111.476Z" fill="#00DAAA"/>
<path fill-rule="evenodd" clip-rule="evenodd" d="M75.2286 113.335L75.2578 114.651C75.4238 114.872 75.6387 114.952 75.7071 115.344L76.9278 117.393C77.4454 118.317 77.8946 119.292 78.3633 120.005C82.543 126.394 89.5547 126.183 96.791 126.143C107.758 126.083 119.516 126.585 130.355 125.972C133.178 123.059 142.543 116.831 146.645 114.128C152.24 110.452 158.207 106.353 163.275 102.254C146.791 101.853 129.926 102.184 113.402 102.184C106.137 102.184 96.0391 101.581 89.1153 102.264C80.2285 103.138 79.2325 107.95 75.2286 113.335Z" fill="#BF4934"/>
<path fill-rule="evenodd" clip-rule="evenodd" d="M173.236 95.2526C170.58 97.6937 166.869 100.075 163.275 102.254C158.207 106.353 152.24 110.452 146.645 114.128C142.543 116.831 133.178 123.059 130.355 125.972L151.283 126.143C156.762 120.598 164.301 116.65 170.893 111.928C177.182 107.418 185.17 100.958 191.508 98.1557L203.285 89.637C203.422 89.4763 203.617 89.2453 203.695 89.1749C203.773 89.0946 204.018 88.8133 204.115 88.7129L218.793 78.5868C222.406 75.8041 226.322 73.0617 230.658 69.9878C233.91 67.6772 239.701 63.3776 243.148 61.8607C234.232 50.0571 238.842 49.4142 208.744 70.5402L173.236 95.2526Z" fill="#00DAAA"/>
<path fill-rule="evenodd" clip-rule="evenodd" d="M75.3945 254.316C82.5137 253.442 77.1426 247.073 74.9258 245.073C72.2695 242.683 68.0215 240.252 69.2422 233.672C69.7891 230.708 72.7187 227.996 74.6719 226.79C74.8281 226.69 75.0723 226.499 75.2286 226.429C78.9298 224.771 77.9727 226.63 78.1192 226.71C79.1055 227.283 82.5723 230.558 82.8457 230.959C86.0879 235.862 83.1485 236.695 83.1289 236.726C73.6563 236.424 84.9258 233.069 74.8086 232.496C72.4844 239.93 80.1894 241.939 82.709 246.118C87.8164 254.597 79.7891 255.792 78.5977 260.946C71.918 260.725 76.3125 260.936 73.8125 259.238C69.3398 256.194 68.8027 254.165 69.0273 249.222C75.1113 248.389 72.4551 249.172 73.5196 250.699C74.9844 252.809 72.4941 251.674 75.3945 254.316ZM71.0976 220.914C57.3574 225.816 50.6289 237.198 54.1738 249.514C63.2852 281.198 106.84 267.094 99.0079 237.348C96.1075 226.308 84.9355 215.981 71.0976 220.914Z" fill="#FBE076"/>
<path fill-rule="evenodd" clip-rule="evenodd" d="M218.793 78.5867L213.08 111.476C219.496 108 228.363 101.169 234.399 96.8899C241.547 91.8269 249.066 85.7092 256.059 81.9421C252.201 74.7092 247.397 68.742 243.148 61.8607C239.701 63.3776 233.91 67.6772 230.658 69.9877C226.322 73.0617 222.406 75.8041 218.793 78.5867Z" fill="#0D4275"/>
<path fill-rule="evenodd" clip-rule="evenodd" d="M75.2286 113.335C79.2325 107.95 80.2285 103.138 89.1153 102.264C96.0391 101.581 106.137 102.184 113.402 102.184C129.926 102.184 146.791 101.853 163.275 102.254C166.869 100.074 170.58 97.6937 173.236 95.2526C154.262 94.6197 134.428 95.1621 115.355 95.1621C95.4922 95.1621 75.2286 90.28 75.2286 113.335Z" fill="#EB7F60"/>
<path fill-rule="evenodd" clip-rule="evenodd" d="M151.283 126.143L185.648 126.193L191.508 98.1557C185.17 100.958 177.182 107.418 170.893 111.928C164.301 116.65 156.762 120.598 151.283 126.143Z" fill="#17528B"/>
<path fill-rule="evenodd" clip-rule="evenodd" d="M203.285 89.637L197.553 122.547C200.727 120.779 202.299 119.463 205.365 117.273L213.08 111.476L218.793 78.5867L204.115 88.7128C204.018 88.8133 203.773 89.0945 203.695 89.1749C203.617 89.2452 203.422 89.4762 203.285 89.637Z" fill="#17528B"/>
<path fill-rule="evenodd" clip-rule="evenodd" d="M204.047 126.032L211.02 126.133C215.375 122.064 223.041 116.901 228.725 113.184C234.662 109.306 240.902 103.962 247.172 100.567L250.951 106.152C247.465 108.141 225.043 123.621 223.031 126.113L229.643 126.063C231.547 123.772 241.557 117.293 244.984 114.842C250.346 111.004 256.156 107.639 260.443 103.741C258.129 99.8233 255.15 96.1265 253.148 91.8471C249.145 93.4042 244.066 97.6434 240.385 100.064L204.047 126.032Z" fill="#EAEFEF"/>
<path fill-rule="evenodd" clip-rule="evenodd" d="M191.508 98.1557L185.648 126.193L193.314 126.153L197.553 122.547L203.285 89.637L191.508 98.1557Z" fill="#0D4275"/>
<path fill-rule="evenodd" clip-rule="evenodd" d="M75.3945 254.316C72.4942 251.674 74.9845 252.809 73.5196 250.699C72.4552 249.172 75.1113 248.389 69.0273 249.222C68.8027 254.165 69.3399 256.194 73.8125 259.238C76.3125 260.936 71.918 260.725 78.5977 260.946C79.7891 255.792 87.8164 254.597 82.709 246.118C80.1895 241.939 72.4844 239.93 74.8086 232.496C84.9258 233.069 73.6563 236.424 83.129 236.726C83.1485 236.695 86.0879 235.862 82.8457 230.959C82.5723 230.558 79.1055 227.283 78.1192 226.71C77.9727 226.63 78.9298 224.771 75.2286 226.429C75.0724 226.499 74.8282 226.69 74.6719 226.79C72.7188 227.996 69.7892 230.708 69.2423 233.672C68.0216 240.252 72.2696 242.683 74.9258 245.073C77.1426 247.073 82.5137 253.442 75.3945 254.316Z" fill="#FAAB21"/>
<path fill-rule="evenodd" clip-rule="evenodd" d="M211.02 126.133L223.031 126.113C225.043 123.621 247.465 108.141 250.951 106.152L247.172 100.567C240.902 103.962 234.662 109.306 228.725 113.184C223.041 116.901 215.375 122.064 211.02 126.133Z" fill="#BAC1CF"/>
<path fill-rule="evenodd" clip-rule="evenodd" d="M247.963 204.469C253.773 193.61 237.641 185.784 232.406 195.317C226.244 206.538 242.582 214.515 247.963 204.469Z" fill="#E0E2E8"/>
<path fill-rule="evenodd" clip-rule="evenodd" d="M279.975 116.991L279.818 95.6342L265.512 95.1822C269.359 102.295 275.336 110.763 279.975 116.991Z" fill="#D96D55"/>
<path fill-rule="evenodd" clip-rule="evenodd" d="M83.1485 203.655L89.2422 203.706V195.307L83.1289 195.327L83.1485 203.655Z" fill="#FED861"/>
<line x1="4.71504" y1="309.507" x2="309.507" y2="4.71504" stroke="#D62929" stroke-width="11"/>
<line x1="12.4932" y1="4.71504" x2="317.285" y2="309.507" stroke="#D62929" stroke-width="11"/>
</svg>
