<svg width="26" height="25" viewBox="0 0 26 25" fill="none" xmlns="http://www.w3.org/2000/svg">
<path fill-rule="evenodd" clip-rule="evenodd" d="M1.21453 23.5247C4.62674 23.6139 8.19826 23.5298 11.6279 23.5298C13.3721 23.5298 15.1163 23.5298 16.8605 23.5298C19.8273 23.5298 19.3541 23.7626 19.3541 21.1664C17.961 21.1613 16.4977 21.2072 15.1145 21.1638C13.8273 21.123 12.9099 20.4602 12.4355 19.8145C11.0076 17.868 12.736 15.5877 15.0029 15.4698C15.218 15.3624 15.2855 15.3695 15.582 15.3705L19.3541 15.373V12.4335L2.84826 12.433C1.80174 12.433 1.70465 12.3004 0.964533 11.9819L0.963953 20.7661C0.963953 21.3932 0.805232 23.1578 1.21453 23.5247Z" fill="#E2A66F"/>
<path fill-rule="evenodd" clip-rule="evenodd" d="M15.032 16.2913C15.1517 16.2122 19.6826 16.2041 20.1384 16.2611L20.1866 20.1653C20.1733 20.3473 20.2209 20.2954 20.1128 20.3629L19.311 20.3589C18.2041 20.3629 17.0959 20.3594 15.9884 20.3594C14.8203 20.3594 14.0343 20.2636 13.4686 19.6744C12.925 19.1089 12.6564 18.3332 13.0703 17.4793C13.3465 16.9098 14.1221 16.3019 15.032 16.2913ZM19.3541 21.1663L20.1483 21.19V24.1709C19.6599 24.2525 4.65349 24.19 2.90698 24.1941C2.10116 24.1956 1.44593 24.0146 1.21454 23.5247C0.805233 23.1578 0.963954 21.3931 0.963954 20.7661L0.964535 11.9819C1.70465 12.3004 1.80175 12.433 2.84826 12.433L19.3541 12.4335L20.1488 12.4632L20.1378 15.4582L15.0029 15.4698C12.736 15.5877 11.0076 17.8679 12.4355 19.8145C12.9099 20.4602 13.8273 21.123 15.1145 21.1638C16.4977 21.2072 17.961 21.1613 19.3541 21.1663ZM17.464 8.89415H18.1773C18.2488 9.14365 18.2436 11.3332 18.1849 11.6265H17.436L17.464 8.89415ZM6.39128 5.45716C6.62907 5.32611 6.82326 5.27016 7.00582 5.11542C7.17733 4.97026 7.23256 4.80847 7.38372 4.63659C7.48779 4.50353 7.31919 4.54839 7.67035 4.5247L9.94302 4.53528C10.1192 5.05544 10.4419 5.21522 10.9483 5.4501C11.0762 5.53327 10.9965 5.37299 11.0517 5.59325L11.0506 6.1996C11.0506 7.33669 11.1186 11.0812 11.0302 11.629C10.65 11.6794 6.59128 11.6799 6.30523 11.6205C6.22558 11.0489 6.28895 7.30746 6.28895 6.14919C6.28895 5.75806 6.20988 5.52067 6.39128 5.45716ZM3.65291 11.6265C2.96686 11.6265 2.2907 11.7001 1.75 11.4375C0.773838 10.9632 0.621512 9.60484 1.7936 9.063C2.3157 8.82157 3.00349 8.89415 3.64361 8.89415C3.71454 9.13861 3.7093 11.3372 3.65291 11.6265ZM5.4064 5.03024L5.38663 11.6255C5.21395 11.6643 5.12035 11.6623 4.93953 11.6618C4.54825 11.6598 4.6314 11.627 4.60116 11.5655L4.60756 3.35938V3.17994L4.7093 3.16532L12.7314 3.16684L12.7122 11.6285L11.9698 11.6134C11.8814 10.1704 11.9605 7.6376 11.9605 5.99798C11.9605 4.87702 12.0977 4.84526 11.3262 4.69204C10.4273 4.51311 11.1686 3.78831 10.2924 3.72833H7.03256C6.63779 3.75555 6.61163 3.88911 6.53314 4.20766C6.35349 4.93548 5.54768 4.50101 5.4064 5.03024ZM13.661 3.37702C13.661 2.08266 13.7523 2.41633 11.1192 2.35585C11.2006 2.10383 11.2907 2.1744 11.6267 2.17792L13.7029 2.18347C13.9704 2.88407 14.4023 2.90978 14.8012 3.13307L14.7901 11.623L13.6628 11.6265L13.6634 8.65978C13.9767 8.49345 13.9971 8.24446 14.1558 8.14012C14.3047 8.04183 14.3622 8.12702 14.4802 7.96825C14.5663 7.85182 14.5523 7.69859 14.5291 7.54335C14.4163 7.3493 14.2378 7.51109 14.0366 7.13559C13.8355 6.75907 13.6953 6.85635 13.661 6.65323C13.661 5.56099 13.6605 4.46925 13.661 3.37702ZM9.79884 2.29486C9.62326 2.47934 8.69128 2.37752 8.37093 2.36089L8.37733 0.963205L8.38198 0.814518L8.48837 0.806452L16.5058 0.811995L16.4884 11.6275L15.7448 11.6134C15.661 10.316 15.7349 8.82812 15.7349 7.51008C15.7349 6.14919 15.7343 4.78831 15.7349 3.42742C15.7349 3.13861 15.8244 2.69355 15.6099 2.49597C15.4105 2.3125 15.0151 2.37601 14.7895 2.19808C13.8192 1.43246 16.1744 1.36643 11.0436 1.36593C10.5919 1.36593 10.4198 1.4007 10.3308 1.7379C10.2454 2.06099 10.1523 2.2752 9.79884 2.29486ZM7.44186 0.403226V2.31855H4.4186C4.00058 2.31855 3.66279 2.4128 3.66279 2.77218V8.06452H2.55814C1.12384 8.06452 0 9.08266 0 10.3327V22.6815C0 23.9602 1.06047 25 2.44186 25H20.6395C20.9395 25 21.1047 24.7903 21.1047 24.5464V12.0464C21.1047 11.4345 20.0541 11.5927 19.186 11.5927V8.66935C19.186 7.90827 18.5221 8.06452 17.4419 8.06452V0.403226C17.4419 0.159274 17.2581 0 16.9767 0H7.90698C7.62558 0 7.44186 0.159274 7.44186 0.403226Z" fill="black"/>
<path fill-rule="evenodd" clip-rule="evenodd" d="M8.32965 9.5756C8.875 8.68195 9.84361 8.85685 10.186 9.36492C10.6099 9.99344 10.4483 9.56048 10.689 9.8377C10.9029 10.0852 10.7454 10.3382 10.5314 10.44C10.2186 10.5887 10.4477 10.374 10.2576 10.6583C10.0849 10.9168 9.76628 11.2172 9.36163 11.2051C8.96337 11.1925 9.01512 10.9682 8.8564 10.748C8.38896 11.2767 7.62152 11.3301 7.08838 10.6401C6.83024 10.3059 6.68489 10.5146 6.58373 10.2122C6.47326 9.88256 6.68082 9.81552 6.88838 9.70262C7.08663 9.59425 7.18082 9.38407 7.31803 9.26764C7.7378 8.91129 8.35349 8.87348 8.32965 9.5756ZM8.49419 6.2384C9.13605 5.95967 9.13547 6.71219 9.13489 7.10685C9.13373 7.50806 9.29186 8.2253 8.84012 8.36996C8.17675 8.58215 8.20291 7.94052 8.20466 7.51008C8.20582 7.02772 8.06512 6.42439 8.49419 6.2384ZM6.39128 5.45715C6.27093 5.84173 6.35175 7.95665 6.35175 8.51814C6.35175 9.54586 6.35175 10.5736 6.35175 11.6018L10.9907 11.6013V5.5751C10.5308 5.53125 10.3727 5.46522 10.1186 5.24092C9.70291 4.87399 9.94768 4.63508 9.70931 4.57863C9.18198 4.57863 7.79419 4.49042 7.38373 4.63659C7.23256 4.80846 7.17733 4.97026 7.00582 5.11542C6.82326 5.27016 6.62907 5.32611 6.39128 5.45715Z" fill="#EBEEF0"/>
<path fill-rule="evenodd" clip-rule="evenodd" d="M21.9429 5.47345L20.712 6.97C20.1977 6.50995 19.7028 6.01963 19.2339 5.54323C19.5343 5.38182 19.7056 5.47652 19.7489 5.07953C19.8331 4.30026 19.7361 3.63732 20.3033 2.7411C20.7835 1.98287 21.5979 1.25795 23.0369 1.28305C22.9262 1.40504 22.752 1.499 22.5964 1.61716C22.0926 1.99787 21.7324 2.52847 21.5258 3.10685C21.3804 3.51265 21.1628 4.84311 21.3418 5.20534C21.447 5.41729 21.6592 5.41306 21.8171 5.44358C21.8311 5.44622 21.8492 5.45027 21.8615 5.45246L21.9429 5.47345ZM23.3917 4.98045C23.3777 4.463 22.5381 4.60017 22.2185 4.60882C22.3475 4.06985 22.2317 3.20674 22.96 2.45844C23.8829 1.51024 24.9336 1.77728 24.9182 1.20794C24.8931 0.281359 19.8213 -0.585285 18.9069 3.86194C18.8484 4.14841 18.8512 4.44431 18.7895 4.70162C18.5867 4.70711 17.6824 4.62469 17.6962 5.13458C17.7018 5.34368 18.2142 5.77201 18.3573 5.92344C18.4734 6.04584 18.5995 6.17151 18.7339 6.30149L20.2604 7.79552C20.811 8.37056 21.1391 7.96486 21.5274 7.44106C21.7878 7.09064 23.3981 5.21373 23.3917 4.98045Z" fill="black"/>
<path fill-rule="evenodd" clip-rule="evenodd" d="M15.0105 17.0726C15.8756 16.8911 16.6157 17.4375 16.7657 18.0212C16.9709 18.817 16.3512 19.4324 15.6448 19.5625C13.7768 19.9062 13.089 17.4743 15.0105 17.0726ZM19.3111 20.3589C19.4593 19.8765 19.3535 17.0156 19.3535 16.2918L15.032 16.2913C14.1221 16.3019 13.3465 16.9098 13.0704 17.4793C12.6564 18.3332 12.925 19.1089 13.4686 19.6744C14.0343 20.2636 14.8204 20.3594 15.9884 20.3594C17.0959 20.3594 18.2041 20.3629 19.3111 20.3589Z" fill="#C48958"/>
<path fill-rule="evenodd" clip-rule="evenodd" d="M4.60117 11.5655C4.84826 11.6346 5.08256 11.6089 5.34768 11.6089L5.3471 5.44356C5.34477 5.19104 5.31338 5.18247 5.4064 5.03026C5.54768 4.50102 6.35349 4.9355 6.53314 4.20768C6.61163 3.88913 6.63779 3.75556 7.03256 3.72834H10.2924C11.1686 3.78832 10.4273 4.51312 11.3262 4.69205C12.0977 4.84528 11.9605 4.87703 11.9605 5.998C11.9605 7.63762 11.8814 10.1704 11.9698 11.6134H12.5198C12.5198 9.08621 12.5169 6.55848 12.5215 4.03126C12.5233 3.16332 12.0837 3.32764 11.1628 3.32764C9.98547 3.32814 5.07675 3.25909 4.60756 3.35939L4.60117 11.5655Z" fill="#6CF4C1"/>
<path fill-rule="evenodd" clip-rule="evenodd" d="M1.21454 23.5247C1.44593 24.0146 2.10117 24.1956 2.90698 24.194C4.65349 24.19 19.6599 24.2525 20.1483 24.1709V21.19L19.3541 21.1663C19.3541 23.7626 19.8273 23.5297 16.8605 23.5297C15.1163 23.5297 13.3721 23.5297 11.6279 23.5297C8.19826 23.5297 4.62675 23.6139 1.21454 23.5247Z" fill="#C48958"/>
<path fill-rule="evenodd" clip-rule="evenodd" d="M9.79884 2.29483C10.1523 2.27517 10.2454 2.06096 10.3308 1.73787C10.4198 1.40068 10.5919 1.3659 11.0436 1.3659C16.1744 1.3664 13.8192 1.43243 14.7895 2.19805C15.0151 2.37598 15.4105 2.31247 15.6099 2.49594C15.8244 2.69352 15.7349 3.13858 15.7349 3.42739C15.7343 4.78828 15.7349 6.14916 15.7349 7.51005C15.7349 8.82809 15.6611 10.316 15.7448 11.6134H16.2936C16.2936 8.70007 16.2936 5.78626 16.2936 2.87295C16.2936 2.03525 16.4733 1.11035 15.8983 0.991401C15.6047 0.930413 9.38082 1.00199 8.45 0.967713L8.41861 2.31953C8.87094 2.31953 9.38256 2.28576 9.79884 2.29483Z" fill="#6CF4C1"/>
<path fill-rule="evenodd" clip-rule="evenodd" d="M11.1192 2.35583C13.7523 2.41632 13.661 2.08265 13.661 3.377C13.6605 4.46924 13.661 5.56098 13.661 6.65321C13.6953 6.85634 13.8355 6.75906 14.0366 7.13557C14.2378 7.51108 14.4163 7.34928 14.5291 7.54334C14.5523 7.69858 14.5663 7.8518 14.4802 7.96824C14.3622 8.12701 14.3046 8.04182 14.1558 8.14011C13.9971 8.24444 13.9767 8.49344 13.6634 8.65977L13.6628 11.6265L14.7901 11.623L14.8012 3.13305C14.4023 2.90977 13.9703 2.88406 13.7029 2.18346L11.6267 2.17791C11.2907 2.17438 11.2006 2.10382 11.1192 2.35583Z" fill="#EAECEF"/>
<path fill-rule="evenodd" clip-rule="evenodd" d="M21.8615 5.45251C21.8492 5.45032 21.8311 5.44627 21.8171 5.44362C21.6592 5.41311 21.447 5.41734 21.3418 5.20539C21.1628 4.84316 21.3804 3.5127 21.5258 3.1069C21.7324 2.52852 22.0926 1.99792 22.5964 1.61721C22.752 1.49905 22.9262 1.40509 23.0369 1.28309C21.5979 1.258 20.7835 1.98292 20.3033 2.74115C19.736 3.63737 19.8331 4.30031 19.7489 5.07958C19.7056 5.47657 19.5343 5.38187 19.2339 5.54328C19.7028 6.01968 20.1976 6.51 20.712 6.97005L21.9429 5.4735L21.8615 5.45251Z" fill="#75FF9C"/>
<path fill-rule="evenodd" clip-rule="evenodd" d="M3.6529 11.6265C3.70929 11.3372 3.71453 9.1386 3.6436 8.89414C3.00348 8.89414 2.31569 8.82156 1.7936 9.06299C0.621503 9.60483 0.773829 10.9632 1.74999 11.4375C2.29069 11.7001 2.96685 11.6265 3.6529 11.6265Z" fill="#C48958"/>
<path fill-rule="evenodd" clip-rule="evenodd" d="M9.01686 10.5292C9.0686 10.2948 9.09942 9.86238 9.36046 9.77418C9.48314 9.90271 9.54593 10.1053 9.43139 10.2938C9.36337 10.4052 9.14999 10.4672 9.01686 10.5292ZM8.02325 10.3266C7.91395 10.2757 7.88197 10.3135 7.85813 10.125C7.82151 9.83366 8.07499 9.80745 8.30465 9.61289C8.24941 9.85886 8.19883 10.1981 8.02325 10.3266ZM8.32965 9.57559C8.35348 8.87347 7.73779 8.91128 7.31802 9.26763C7.18081 9.38406 7.08662 9.59424 6.88837 9.70261C6.68081 9.81551 6.47325 9.88255 6.58372 10.2122C6.68488 10.5146 6.83023 10.3059 7.08837 10.6401C7.62151 11.3301 8.38895 11.2767 8.85639 10.748C9.01511 10.9682 8.96337 11.1925 9.36162 11.2051C9.76627 11.2172 10.0849 10.9168 10.2576 10.6583C10.4477 10.374 10.2186 10.5887 10.5314 10.44C10.7453 10.3382 10.9029 10.0852 10.6889 9.83769C10.4483 9.56047 10.6099 9.99343 10.186 9.3649C9.8436 8.85684 8.87499 8.68194 8.32965 9.57559Z" fill="black"/>
<path fill-rule="evenodd" clip-rule="evenodd" d="M15.1576 17.8684C15.8721 17.6774 16.1459 18.6038 15.4808 18.7641C14.7692 18.9365 14.5337 18.0348 15.1576 17.8684ZM15.0105 17.0726C13.089 17.4743 13.7768 19.9062 15.6448 19.5625C16.3512 19.4325 16.9709 18.817 16.7657 18.0212C16.6157 17.4375 15.8756 16.8911 15.0105 17.0726Z" fill="black"/>
<path fill-rule="evenodd" clip-rule="evenodd" d="M8.37732 0.963211L8.44999 0.967748C9.38081 1.00202 15.6046 0.930449 15.8982 0.991436C16.4732 1.11039 16.2936 2.03529 16.2936 2.87299C16.2936 5.7863 16.2936 8.70011 16.2936 11.6134H15.7448L16.4884 11.6275L16.5058 0.812001L8.48837 0.806458L8.38197 0.814524L8.37732 0.963211Z" fill="#03E49A"/>
<path fill-rule="evenodd" clip-rule="evenodd" d="M19.311 20.3588L20.1128 20.3629L20.1238 16.2943L19.3535 16.2918C19.3535 17.0156 19.4593 19.8765 19.311 20.3588Z" fill="#B5733E"/>
<path fill-rule="evenodd" clip-rule="evenodd" d="M4.60756 3.3594C5.07675 3.2591 9.98547 3.32815 11.1628 3.32764C12.0837 3.32764 12.5233 3.16333 12.5215 4.03127C12.5169 6.55849 12.5198 9.08621 12.5198 11.6134H11.9698L12.7122 11.6286L12.7314 3.16686L4.7093 3.16534L4.60756 3.17996V3.3594Z" fill="#03E49A"/>
<path fill-rule="evenodd" clip-rule="evenodd" d="M15.0029 15.4698L20.1378 15.4582L20.1488 12.4632L19.3541 12.4335V15.373L15.582 15.3705C15.2855 15.3695 15.218 15.3624 15.0029 15.4698Z" fill="#C48958"/>
<path fill-rule="evenodd" clip-rule="evenodd" d="M17.436 11.6265H18.1849C18.2436 11.3332 18.2488 9.14366 18.1773 8.89417H17.4639L17.436 11.6265Z" fill="#C48958"/>
<path fill-rule="evenodd" clip-rule="evenodd" d="M8.49419 6.23843C8.06512 6.42441 8.20582 7.02774 8.20465 7.5101C8.20291 7.94054 8.17675 8.58217 8.84012 8.36998C9.29186 8.22532 9.13372 7.50808 9.13489 7.10687C9.13547 6.71221 9.13605 5.9597 8.49419 6.23843Z" fill="black"/>
<path fill-rule="evenodd" clip-rule="evenodd" d="M10.9483 5.45013L10.9907 5.57513V11.6013L6.35175 11.6018C6.35175 10.5736 6.35175 9.5459 6.35175 8.51818C6.35175 7.95669 6.27093 5.84177 6.39128 5.45719C6.20989 5.5207 6.28896 5.7581 6.28896 6.14923C6.28896 7.30749 6.22559 11.0489 6.30524 11.6205C6.59128 11.68 10.65 11.6795 11.0302 11.6291C11.1186 11.0812 11.0506 7.33673 11.0506 6.19963L11.0517 5.59328C10.9965 5.37302 11.0762 5.5333 10.9483 5.45013Z" fill="#8E8F91"/>
<path fill-rule="evenodd" clip-rule="evenodd" d="M15.1576 17.8685C14.5337 18.0348 14.7692 18.9365 15.4808 18.7641C16.1459 18.6039 15.8721 17.6774 15.1576 17.8685Z" fill="#EBEEF0"/>
<path fill-rule="evenodd" clip-rule="evenodd" d="M19.3535 16.2918L20.1238 16.2943L20.1128 20.3629C20.2209 20.2953 20.1733 20.3472 20.1866 20.1653L20.1384 16.261C19.6826 16.2041 15.1517 16.2122 15.032 16.2913L19.3535 16.2918Z" fill="#533A25"/>
<path fill-rule="evenodd" clip-rule="evenodd" d="M10.9907 5.57512L10.9483 5.45012C10.4419 5.21524 10.1192 5.05546 9.94303 4.5353L7.67036 4.52472C7.31919 4.54841 7.4878 4.50355 7.38373 4.63661C7.79419 4.49044 9.18198 4.57865 9.70931 4.57865C9.94768 4.6351 9.70291 4.87401 10.1186 5.24095C10.3727 5.46524 10.5308 5.53127 10.9907 5.57512Z" fill="#D1D1D6"/>
<path fill-rule="evenodd" clip-rule="evenodd" d="M4.60117 11.5655C4.6314 11.627 4.54826 11.6597 4.93954 11.6618C5.12035 11.6623 5.21396 11.6643 5.38663 11.6255L5.4064 5.03021C5.31338 5.18243 5.34477 5.191 5.3471 5.44352L5.34768 11.6088C5.08256 11.6088 4.84826 11.6345 4.60117 11.5655Z" fill="#387F64"/>
<path fill-rule="evenodd" clip-rule="evenodd" d="M9.01686 10.5292C9.15 10.4672 9.36337 10.4052 9.4314 10.2938C9.54593 10.1053 9.48314 9.9027 9.36047 9.77417C9.09942 9.86238 9.06861 10.2948 9.01686 10.5292Z" fill="#EAECEF"/>
<path fill-rule="evenodd" clip-rule="evenodd" d="M9.79883 2.29485C9.38255 2.28578 8.87093 2.31955 8.4186 2.31955L8.44999 0.967733L8.37732 0.963196L8.37093 2.36088C8.69127 2.37751 9.62325 2.47933 9.79883 2.29485Z" fill="#56C49B"/>
<path fill-rule="evenodd" clip-rule="evenodd" d="M8.02325 10.3266C8.19883 10.1981 8.24941 9.85888 8.30465 9.61292C8.075 9.80747 7.82151 9.83368 7.85814 10.125C7.88197 10.3135 7.91395 10.2757 8.02325 10.3266Z" fill="#EAECEF"/>
</svg>
