<svg width="25" height="25" viewBox="0 0 25 25" fill="none" xmlns="http://www.w3.org/2000/svg">
<path d="M19.9914 0H0V25H19.9914V0Z" fill="black"/>
<path fill-rule="evenodd" clip-rule="evenodd" d="M10.7975 18.1986L17.4785 18.1898C17.6243 18.2949 17.5642 18.2161 17.5642 18.7325C17.5642 19.6604 17.6157 22.1814 17.5557 22.7416C17.2126 22.8292 10.9348 22.8116 10.7289 22.7241C10.6603 21.9538 10.7203 19.7391 10.7118 18.68C10.7118 18.2073 10.6603 18.2511 10.7975 18.1986ZM6.83526 21.9976L9.71689 21.9888L9.92271 22.0151L9.90565 22.7416H6.85243L6.83526 22.5578V21.9976ZM5.21432 21.9976H5.81473L6.02913 22.0064L6.01196 22.7416H5.22291L5.21432 22.5578V21.9976ZM3.5848 21.9976H4.19379L4.39961 22.0064L4.39103 22.7416H3.60197L3.5848 22.5578V21.9976ZM1.95538 21.9976H2.56427L2.77867 22.0064L2.76151 22.7416H1.97255L1.96397 22.5578L1.95538 21.9976ZM1.96397 20.1156C2.00685 20.0981 1.9896 20.0894 2.08394 20.0719C2.40127 20.0193 9.78549 20.0718 9.92271 20.0893C9.98275 20.3169 9.98274 20.6232 9.91413 20.8508C9.40813 20.9033 3.67924 20.8508 2.40137 20.8596C2.33276 20.8596 2.18691 20.8683 2.13545 20.8596C1.85243 20.8333 2.06688 20.8684 1.96397 20.8071V20.1156ZM1.97255 18.1898L9.91413 18.2074V18.9339L1.96397 18.9426L1.97255 18.1898ZM6.18345 16.2903H6.03772H17.2984H17.3584L17.5557 16.3078L17.5471 17.0343H6.18345V16.8418V16.2903ZM1.97255 16.2903H5.1715L5.36874 16.3078V17.0343H1.96397V16.8418L1.97255 16.2903ZM1.97255 14.4258C2.04974 14.3733 1.96387 14.3996 2.08394 14.3733C2.10109 14.3733 2.17838 14.3645 2.18696 14.3645C2.25557 14.3645 2.37559 14.3733 2.46135 14.3733C4.68262 14.3821 16.8781 14.312 17.5385 14.3821C17.6328 14.6009 17.6071 14.916 17.5642 15.1436C17.1269 15.2224 6.78385 15.1698 5.81473 15.1698C5.48025 15.1698 2.19552 15.2399 1.95538 15.1173L1.97255 14.4258ZM14.897 12.1236L17.5471 12.1411L17.5557 12.8676H14.897V12.1236ZM13.2933 12.1236L14.0908 12.1324V12.8676H13.2933V12.1236ZM11.7152 12.1236H12.487L12.4785 12.8676H11.7152V12.1236ZM8.46478 6.64388H10.6946L10.9004 6.65264V12.8589L10.6946 12.8676H8.46478V6.64388ZM5.21432 12.8676C5.21432 11.9923 5.21432 11.1082 5.21432 10.2328C5.21432 9.70759 5.13716 8.00942 5.24007 7.62427H7.65007V12.8676H5.21432ZM1.97255 9.38373H4.19379L4.39961 9.3925V12.8676H4.19379H1.96397L1.97255 9.38373ZM11.7067 10.4779L17.3584 10.4692L17.5557 10.4954L17.5471 11.222H11.7152V11.0294L11.7067 10.4779ZM15.2229 8.8235H17.3584L17.5557 8.84978L17.5385 9.56763H15.2401L15.2229 9.38373V8.8235ZM11.7067 8.8235H14.2109L14.4167 8.84978L14.3996 9.56763H11.7323L11.7152 9.38373L11.7067 8.8235ZM1.63806 5.11201L2.08394 5.10325L2.07546 5.85604H1.6723L1.63806 6.60018H2.08394L2.07546 7.3442L1.6723 7.35297V24.4923H19.4682V4.35922H1.6723L1.63806 5.11201Z" fill="#A7EED4"/>
<path fill-rule="evenodd" clip-rule="evenodd" d="M17.1097 1.7069H17.8902L17.8988 2.45104H17.0841L17.1097 1.7069ZM1.67235 0.542725H19.4682L19.4596 3.61522H1.71527C1.5952 3.22131 1.67235 1.12046 1.67235 0.542725ZM15.4803 1.7069H16.2693L16.2778 2.45104H15.4546L15.4803 1.7069ZM8.482 1.7069H14.6397L14.6483 2.45104H8.45625L8.482 1.7069Z" fill="#ED9B88"/>
<path fill-rule="evenodd" clip-rule="evenodd" d="M22.0926 20.6583L23.8506 20.667C23.662 21.0347 23.2247 21.6562 22.9674 22.0064L22.0926 20.6583ZM22.9845 6.39011H24.1251H24.1851L24.1765 7.08157C23.9964 7.21287 21.9468 7.14288 21.7667 7.12538V6.39877L22.9845 6.39011ZM23.5163 4.77062C23.6964 4.85816 23.7993 4.99825 23.9451 5.12955C24.1509 5.30462 24.1851 5.27841 24.1765 5.6198C23.9621 5.70733 22.1269 5.67223 21.7752 5.63721C21.7409 5.32209 21.7924 5.33092 21.9639 5.17336C22.5128 4.69192 22.2983 4.72693 22.8815 4.73568C23.0788 4.73568 23.3876 4.70935 23.5163 4.77062ZM24.6139 18.3473L24.1851 18.3561L24.1765 19.9143H23.0445L21.7667 19.9055V7.88693L22.9845 7.87817L24.1251 7.88693H24.1851V17.6033L24.5883 17.6384H24.9914L24.9828 5.02451C24.9399 4.89321 24.8799 4.88443 24.7598 4.77939L24.6998 4.73568C24.6912 4.72693 24.6826 4.71815 24.674 4.7094C23.7735 3.86031 24.1251 3.97413 22.8301 3.97413C21.8181 3.96538 22.2898 3.84283 21.132 4.84948C20.9605 4.99829 20.9348 4.97201 20.9262 5.26087C20.9262 5.47096 20.9348 5.69854 20.9348 5.90862C20.9348 5.96115 20.8747 20.1331 20.9518 20.3957L21.9467 21.9276C22.1183 22.1902 22.2555 22.4003 22.427 22.6716C22.6157 22.9518 22.7701 23.1618 22.933 23.4507C23.1217 23.3369 23.5334 22.6191 23.6877 22.4002C23.9279 22.0238 24.1594 21.6824 24.3995 21.3148C24.5196 21.1397 24.6226 20.9822 24.7512 20.7896C24.9141 20.5358 24.9999 20.5182 24.9999 20.1243C24.9914 19.5291 24.9914 18.9251 24.9914 18.3298L24.6139 18.3473Z" fill="black"/>
<path fill-rule="evenodd" clip-rule="evenodd" d="M0.45459 24.4923H0.505993H1.67236V7.35297L1.2693 7.3442V6.60018L1.32081 6.59141L1.63813 6.60018L1.67236 5.85604H1.2693V5.10325H1.32081L1.63813 5.11201L1.67236 4.35922H0.45459V21.166V24.4923Z" fill="#71E4BF"/>
<path fill-rule="evenodd" clip-rule="evenodd" d="M11.5867 18.9426L16.6895 18.9339C16.7753 19.0039 16.7239 18.8639 16.7668 19.074L16.7496 21.9976C16.4066 22.0939 11.7667 22.0851 11.5352 21.9801C11.4923 21.4986 11.5266 20.9209 11.518 20.4219C11.518 20.2294 11.4494 19.0127 11.5867 18.9426ZM17.4786 18.1898L10.7976 18.1986L10.7719 22.7241H17.5214C17.5128 21.9713 17.5129 21.2185 17.5129 20.4657C17.5129 19.9843 17.5815 18.5663 17.4786 18.1898Z" fill="black"/>
<path fill-rule="evenodd" clip-rule="evenodd" d="M22.9846 8.65725H23.3705L23.3791 9.4188L22.5729 9.34881C22.6844 9.45385 22.5387 9.39255 22.7702 9.42756C22.7874 9.42756 22.9417 9.43633 22.9846 9.43633V10.1453H23.3705L23.3791 10.9069L22.5729 10.8369C22.6844 10.9507 22.5387 10.8806 22.7702 10.9156C22.7874 10.9156 22.9417 10.9244 22.9846 10.9244V11.6335L23.3619 11.6422C23.422 11.9661 23.4134 17.0518 23.3448 17.2619L22.9846 17.2707C22.9846 17.7609 22.8902 19.5816 23.0446 19.9143H24.1766L24.1852 18.3561L24.614 18.3474L24.5884 17.6384L24.1852 17.6033V7.88694H24.1252L22.9846 7.87817V8.65725Z" fill="#D0DBEF"/>
<path fill-rule="evenodd" clip-rule="evenodd" d="M23.0446 19.9143C22.8902 19.5816 22.9846 17.7609 22.9846 17.2707L22.59 17.2619L22.5643 11.6422L22.9846 11.6335V10.9244C22.9417 10.9244 22.7873 10.9156 22.7702 10.9156C22.5386 10.8806 22.6843 10.9507 22.5728 10.8369L22.5814 10.1541L22.9846 10.1453V9.43633C22.9417 9.43633 22.7873 9.42756 22.7702 9.42756C22.5386 9.39255 22.6843 9.45385 22.5728 9.34881L22.5814 8.66601L22.9846 8.65725V7.87817L21.7667 7.88694V19.9055L23.0446 19.9143Z" fill="#A0B6DE"/>
<path fill-rule="evenodd" clip-rule="evenodd" d="M9.66555 7.38792L10.0858 7.39668V12.1236H9.66555H9.27955V7.38792H9.66555ZM8.46484 12.8676H10.6947L10.9005 12.8589V6.65265L10.6947 6.64389H8.46484V12.8676Z" fill="black"/>
<path fill-rule="evenodd" clip-rule="evenodd" d="M1.95544 15.1173H17.0841H17.53V14.4258H17.6244H1.97261L1.95544 15.1173Z" fill="black"/>
<path fill-rule="evenodd" clip-rule="evenodd" d="M6.82677 8.43839L6.83535 12.1236H6.42371H6.02923C6.02923 11.4233 5.92623 8.85849 6.05488 8.3683C6.1921 8.3683 6.32941 8.35964 6.46663 8.35964C6.67246 8.35964 6.77531 8.31584 6.82677 8.43839ZM5.21442 12.8676H7.65017V7.62427H5.24017C5.13725 8.00942 5.21442 9.70759 5.21442 10.2328C5.21442 11.1082 5.21442 11.9923 5.21442 12.8676Z" fill="black"/>
<path fill-rule="evenodd" clip-rule="evenodd" d="M6.18345 16.8418V17.0343H17.5471L17.5557 16.3078L17.3584 16.2903H17.2984H6.03772H6.18345V16.8418Z" fill="black"/>
<path fill-rule="evenodd" clip-rule="evenodd" d="M11.1063 20.4658H17.1784L17.1527 18.6625L11.1235 18.6712L11.1063 20.4658Z" fill="#F7EC91"/>
<path fill-rule="evenodd" clip-rule="evenodd" d="M17.1784 20.4657H11.1063L11.1149 22.2602H17.1698L17.1784 20.4657Z" fill="#EDD52E"/>
<path fill-rule="evenodd" clip-rule="evenodd" d="M3.17318 10.1278L3.58482 10.1365V12.1149L3.17318 12.1236H2.7787V10.1278H3.17318ZM1.96399 12.8676H4.19381H4.39964V9.39252L4.19381 9.38376H1.97257L1.96399 12.8676Z" fill="black"/>
<path fill-rule="evenodd" clip-rule="evenodd" d="M1.96399 18.9426L9.91415 18.9339V18.2074L1.97257 18.1898L1.96399 18.9426Z" fill="black"/>
<path fill-rule="evenodd" clip-rule="evenodd" d="M1.96399 20.8071H9.87992L9.89709 20.1156H1.96399V20.8071Z" fill="black"/>
<path fill-rule="evenodd" clip-rule="evenodd" d="M8.4563 2.45101H14.6484L14.6398 1.70688H8.48205L8.4563 2.45101Z" fill="#FDFFFE"/>
<path fill-rule="evenodd" clip-rule="evenodd" d="M22.9845 17.2707L23.3447 17.2619C23.4133 17.0518 23.4219 11.9661 23.3619 11.6422L22.9845 11.6335L22.5642 11.6422L22.59 17.2619L22.9845 17.2707Z" fill="#FDFFFE"/>
<path fill-rule="evenodd" clip-rule="evenodd" d="M11.7152 11.0294V11.222H17.5471L17.5557 10.4955L17.3584 10.4692L11.7067 10.4779L11.7152 11.0294Z" fill="black"/>
<path fill-rule="evenodd" clip-rule="evenodd" d="M1.71528 3.61522C1.59522 3.22131 1.67236 1.1117 1.67236 0.542725H0.505993H0.45459V3.61522H1.71528Z" fill="#E76C4C"/>
<path fill-rule="evenodd" clip-rule="evenodd" d="M1.96399 16.8418V17.0343H5.36876V16.3078L5.17152 16.2903H1.97257L1.96399 16.8418Z" fill="black"/>
<path fill-rule="evenodd" clip-rule="evenodd" d="M6.83533 22.5578L6.8525 22.7416H9.90572L9.92278 22.0151L9.71696 21.9888L6.83533 21.9976V22.5578Z" fill="black"/>
<path fill-rule="evenodd" clip-rule="evenodd" d="M11.7152 9.38376L11.7323 9.56765H14.3996L14.4167 8.8498L14.2109 8.82352H11.7067L11.7152 9.38376Z" fill="black"/>
<path fill-rule="evenodd" clip-rule="evenodd" d="M9.69971 12.57H10.7032V6.95024L9.69971 6.94159V12.57Z" fill="#F6EB8D"/>
<path fill-rule="evenodd" clip-rule="evenodd" d="M14.8971 12.8676H17.5557L17.5471 12.1411L14.8971 12.1236V12.8676Z" fill="black"/>
<path fill-rule="evenodd" clip-rule="evenodd" d="M1.95544 15.1174C2.19558 15.24 5.48031 15.1699 5.81479 15.1699C6.78391 15.1699 17.1269 15.2225 17.5643 15.1437C17.6072 14.9161 17.6329 14.601 17.5386 14.3821C16.8782 14.3121 4.68269 14.3821 2.46142 14.3734C2.37565 14.3734 2.25563 14.3646 2.18702 14.3646C2.17845 14.3646 2.10116 14.3734 2.08401 14.3734C1.96394 14.3996 2.0498 14.3733 1.97261 14.4258H17.6244H17.53V15.1174H17.0841H1.95544Z" fill="#54786A"/>
<path fill-rule="evenodd" clip-rule="evenodd" d="M9.69972 12.57V6.94159H8.75635V12.57H9.69972Z" fill="#EDD52E"/>
<path fill-rule="evenodd" clip-rule="evenodd" d="M15.223 9.38376L15.2402 9.56765H17.5386L17.5558 8.8498L17.3585 8.82352H15.223V9.38376Z" fill="black"/>
<path fill-rule="evenodd" clip-rule="evenodd" d="M6.42361 12.5001V8.07952H7.38415C7.25551 7.93071 7.00681 7.98324 6.54369 7.98324C6.21779 7.98324 5.90046 7.992 5.57456 7.992C5.26582 8.58724 5.50599 11.6597 5.50599 12.5001H6.42361Z" fill="#A0B6DE"/>
<path fill-rule="evenodd" clip-rule="evenodd" d="M6.42371 12.5H7.40142L7.38425 8.07947H6.42371V12.5Z" fill="#D0DAEF"/>
<path fill-rule="evenodd" clip-rule="evenodd" d="M22.9675 22.0064C23.2247 21.6562 23.6621 21.0347 23.8507 20.6671L22.0927 20.6583L22.9675 22.0064Z" fill="#E56A4B"/>
<path fill-rule="evenodd" clip-rule="evenodd" d="M24.1766 5.61975H22.976C22.976 5.27836 22.9159 5.23456 23.1217 5.03323C23.2504 4.91943 23.3105 4.83185 23.5163 4.77058C23.3877 4.7093 23.0788 4.73564 22.8816 4.73564C22.2984 4.72688 22.5128 4.69187 21.9639 5.17331C21.7924 5.33088 21.741 5.32204 21.7753 5.63717C22.1269 5.67218 23.9622 5.70729 24.1766 5.61975Z" fill="#E56A4B"/>
<path fill-rule="evenodd" clip-rule="evenodd" d="M17.4786 18.1898C17.5815 18.5663 17.5129 19.9843 17.5129 20.4657C17.5129 21.2185 17.5128 21.9713 17.5214 22.7241H10.7718L10.7976 18.1986C10.6604 18.2511 10.7118 18.2073 10.7118 18.68C10.7204 19.7392 10.6604 21.9538 10.729 22.7241C10.9348 22.8116 17.2127 22.8292 17.5557 22.7416C17.6158 22.1814 17.5643 19.6604 17.5643 18.7326C17.5643 18.2161 17.6244 18.2949 17.4786 18.1898Z" fill="#4D6D61"/>
<path fill-rule="evenodd" clip-rule="evenodd" d="M24.1766 7.08156L22.9846 7.09032V6.39011L21.7667 6.39876V7.12537C21.9468 7.14288 23.9965 7.21286 24.1766 7.08156Z" fill="#71E4BF"/>
<path fill-rule="evenodd" clip-rule="evenodd" d="M1.96399 20.8071C2.06691 20.8684 1.85246 20.8333 2.13547 20.8596C2.18693 20.8684 2.33278 20.8596 2.40139 20.8596C3.67926 20.8508 9.40815 20.9034 9.91415 20.8508C9.98276 20.6232 9.98277 20.3169 9.92274 20.0893C9.78552 20.0718 2.40129 20.0193 2.08397 20.0719C1.98963 20.0894 2.00687 20.0981 1.96399 20.1156H9.89709L9.87992 20.8071H1.96399Z" fill="#507265"/>
<path fill-rule="evenodd" clip-rule="evenodd" d="M3.21606 12.5613L4.11662 12.5525V9.83896L3.21606 9.8302V12.5613Z" fill="#ED9B87"/>
<path fill-rule="evenodd" clip-rule="evenodd" d="M24.1766 7.08156L24.1852 6.39011H24.1252H22.9846V7.09032L24.1766 7.08156Z" fill="#A7EED4"/>
<path fill-rule="evenodd" clip-rule="evenodd" d="M3.21615 12.5613V9.8302H2.35852V12.5613H3.21615Z" fill="#E56A4B"/>
<path fill-rule="evenodd" clip-rule="evenodd" d="M24.1765 5.6198C24.1851 5.27842 24.1509 5.30462 23.9451 5.12955C23.7993 4.99825 23.6964 4.85817 23.5163 4.77063C23.3104 4.8319 23.2503 4.91948 23.1217 5.03328C22.9158 5.23461 22.9759 5.27842 22.9759 5.6198H24.1765Z" fill="#ED9B87"/>
<path fill-rule="evenodd" clip-rule="evenodd" d="M16.6894 18.9339L16.7066 20.4657V21.9801H11.5779L11.5694 20.4657L11.5865 18.9426C11.4493 19.0127 11.5179 20.2293 11.5179 20.4219C11.5264 20.9209 11.4921 21.4986 11.535 21.9801C11.7666 22.0851 16.4064 22.0939 16.7495 21.9976L16.7667 19.074C16.7238 18.8639 16.7752 19.0039 16.6894 18.9339Z" fill="#726716"/>
<path fill-rule="evenodd" clip-rule="evenodd" d="M1.67235 7.35298L2.07552 7.34422L2.084 6.60019H1.63812L1.3208 6.59143L1.26929 6.60019V7.34422L1.67235 7.35298Z" fill="#FDFFFE"/>
<path fill-rule="evenodd" clip-rule="evenodd" d="M1.67235 5.85606H2.07552L2.084 5.10327L1.63812 5.11203L1.3208 5.10327H1.26929V5.85606H1.67235Z" fill="#FDFFFE"/>
<path fill-rule="evenodd" clip-rule="evenodd" d="M1.96403 22.5578L1.97261 22.7416H2.76157L2.77874 22.0064L2.56433 21.9976H1.95544L1.96403 22.5578Z" fill="black"/>
<path fill-rule="evenodd" clip-rule="evenodd" d="M5.21436 22.5578L5.22294 22.7416H6.012L6.02917 22.0064L5.81476 21.9976H5.21436V22.5578Z" fill="black"/>
<path fill-rule="evenodd" clip-rule="evenodd" d="M3.58484 22.5578L3.60201 22.7416H4.39107L4.39965 22.0064L4.19383 21.9976H3.58484V22.5578Z" fill="black"/>
<path fill-rule="evenodd" clip-rule="evenodd" d="M17.0841 2.45101H17.8988L17.8902 1.70688H17.1098L17.0841 2.45101Z" fill="#FDFFFE"/>
<path fill-rule="evenodd" clip-rule="evenodd" d="M15.4546 2.45101H16.2779L16.2693 1.70688H15.4803L15.4546 2.45101Z" fill="#FDFFFE"/>
<path fill-rule="evenodd" clip-rule="evenodd" d="M13.2933 12.8676H14.0909V12.1324L13.2933 12.1236V12.8676Z" fill="black"/>
<path fill-rule="evenodd" clip-rule="evenodd" d="M22.5729 10.8369L23.3791 10.9068L23.3705 10.1453H22.9846L22.5815 10.1541L22.5729 10.8369Z" fill="#FDFFFE"/>
<path fill-rule="evenodd" clip-rule="evenodd" d="M22.5729 9.34882L23.3791 9.41881L23.3705 8.65726H22.9846L22.5815 8.66602L22.5729 9.34882Z" fill="#FDFFFE"/>
<path fill-rule="evenodd" clip-rule="evenodd" d="M11.7153 12.8676H12.4786L12.4871 12.1236H11.7153V12.8676Z" fill="black"/>
</svg>
