<svg width="30" height="30" viewBox="0 0 30 31" fill="none" xmlns="http://www.w3.org/2000/svg">
<path d="M4.60001 18.6979H8.60001C8.87615 18.6979 9.10001 18.9217 9.10001 19.1979V30.5H4.10001V19.1979C4.10001 18.9217 4.32386 18.6979 4.60001 18.6979Z" fill="#4ED078" stroke="#360956"/>
<path d="M11.8 14.7588H15.8C16.0761 14.7588 16.3 14.9826 16.3 15.2588V30.5H11.3V15.2588C11.3 14.9826 11.5238 14.7588 11.8 14.7588Z" fill="#FECE60" stroke="#360956"/>
<path d="M19 10.8196H23C23.2761 10.8196 23.5 11.0435 23.5 11.3196V30.5H18.5V11.3196C18.5 11.0435 18.7239 10.8196 19 10.8196Z" fill="#FF5F5F" stroke="#360956"/>
<line y1="30.5" x2="26.4" y2="30.5" stroke="#360956"/>
<line x1="0.5" y1="-0.5" x2="11.8162" y2="-0.5" transform="matrix(0.74586 -0.666103 0.798425 0.602094 8.60693 13.4368)" stroke="#360956" stroke-linecap="round"/>
<line x1="0.5" y1="-0.5" x2="5.13632" y2="-0.5" transform="matrix(0.85162 0.52416 -0.674619 0.738166 16.8 5.39575)" stroke="#360956" stroke-linecap="round"/>
<line x1="0.5" y1="-0.5" x2="10.5404" y2="-0.5" transform="matrix(0.760845 -0.648933 0.784832 0.619709 21.6 8.62109)" stroke="#360956" stroke-linecap="round"/>
<line x1="24.5" y1="0.956635" x2="29.5" y2="0.956635" stroke="#360956" stroke-linecap="round"/>
<line x1="0.5" y1="-0.5" x2="4.45818" y2="-0.5" transform="matrix(0.20544 -0.97867 0.990154 0.13998 28.8907 5.85242)" stroke="#360956" stroke-linecap="round"/>
</svg>
