<svg width="25" height="25" viewBox="0 0 27  27  " fill="none" xmlns="http://www.w3.org/2000/svg">
<path fill-rule="evenodd" clip-rule="evenodd" d="M9.3811 5.87074L18.0077 0.890179L20.8905 5.88324L9.3811 5.87074Z" stroke="black" stroke-linecap="round" stroke-linejoin="round"/>
<path d="M0.642334 7.14017C0.642334 6.44979 1.20198 5.89017 1.89233 5.89017H24.3923C25.0827 5.89017 25.6423 6.44979 25.6423 7.14017V24.6402C25.6423 25.3305 25.0827 25.8902 24.3923 25.8902H1.89233C1.20198 25.8902 0.642334 25.3305 0.642334 24.6402V7.14017Z" fill="#79DA2C" stroke="black" stroke-linejoin="round"/>
<path d="M20.1736 19.0152H25.6423V12.7652H20.1736C18.3614 12.7652 16.8923 14.1643 16.8923 15.8902C16.8923 17.616 18.3614 19.0152 20.1736 19.0152Z" fill="white" stroke="white" stroke-linejoin="round"/>
<path d="M25.6423 8.70267V23.7027" stroke="black" stroke-linecap="round"/>
</svg>
