<svg width="21" height="23" viewBox="0 0 21 23" fill="none" xmlns="http://www.w3.org/2000/svg">
<path fill-rule="evenodd" clip-rule="evenodd" d="M7.42923 5.04065L14.129 0.890179L16.3679 5.05106L7.42923 5.04065Z" stroke="black" stroke-linecap="round" stroke-linejoin="round"/>
<path d="M0.642334 6.0985C0.642334 5.52319 1.07698 5.05684 1.61314 5.05684H19.0876C19.6238 5.05684 20.0584 5.52319 20.0584 6.0985V20.6818C20.0584 21.2571 19.6238 21.7235 19.0876 21.7235H1.61314C1.07698 21.7235 0.642334 21.2571 0.642334 20.6818V6.0985Z" fill="#79DA2C" stroke="black" stroke-linejoin="round"/>
<path d="M15.8111 15.9943H20.0584V10.786H15.8111C14.4037 10.786 13.2628 11.9519 13.2628 13.3902C13.2628 14.8284 14.4037 15.9943 15.8111 15.9943Z" fill="white" stroke="white" stroke-linejoin="round"/>
<path d="M20.0584 7.40059V19.9006" stroke="black" stroke-linecap="round"/>
</svg>
