<svg width="525" height="685" viewBox="0 0 525 685" fill="none" xmlns="http://www.w3.org/2000/svg">
<path d="M359.4 271.684V303.773C355.749 311.506 352.167 321.557 348.661 334.144C348.661 334.144 354.033 353.782 359.4 377.511V445.383H225.332L216.019 459.847H190.493V523.42H232.112V669.748H240.758V523.42H265.198V669.748H273.844V523.42H358.572V669.748H367.218V523.42H400.071V669.748H408.717L408.372 523.42H417.46V271.684H359.4Z" fill="#CCCCCC"/>
<path d="M525 669.612C525 669.905 524.661 670.142 524.244 670.142H0V669.083H524.244C524.661 669.083 525 669.32 525 669.612Z" fill="#E6E6E6"/>
<path d="M162.499 192.972C156.777 185.651 148.689 182.95 144.435 186.939C140.181 190.927 141.371 200.093 147.097 207.416C149.347 210.375 152.212 212.701 155.451 214.2L180.055 244.883L192.958 231.934L167.334 203.06C166.481 199.323 164.823 195.864 162.499 192.972Z" fill="#FFB6B6"/>
<path d="M347.167 230.388C347.167 230.388 352.548 257.359 331.19 265.959C309.831 274.559 254.482 307.58 250.385 306.067C246.288 304.554 232.885 311.941 217.065 296.181C201.245 280.422 163.026 232.909 163.026 232.909L178.747 209.53L237.936 254.302C237.936 254.302 239.202 253.891 244.813 253.254C250.423 252.617 246.035 256.492 254.812 248.741C263.588 240.99 319.603 213.212 319.603 213.212C319.603 213.212 336.04 204.293 347.167 230.388Z" fill="#2F2E41"/>
<path d="M207.501 606.621L216.202 637.323L192.031 655.32L174.628 638.381C174.628 638.381 181.396 611.914 178.495 605.562L207.501 606.621Z" fill="#FFB6B6"/>
<path d="M330.291 171.505L344.154 204.991L303.592 232.6L301.285 192.679L330.291 171.505Z" fill="#FFB6B6"/>
<path opacity="0.1" d="M330.291 171.505L344.154 204.991L303.592 232.6L301.285 192.679L330.291 171.505Z" fill="black"/>
<path d="M314.349 201.358C330.617 201.358 343.804 186.918 343.804 169.106C343.804 151.294 330.617 136.854 314.349 136.854C298.082 136.854 284.895 151.294 284.895 169.106C284.895 186.918 298.082 201.358 314.349 201.358Z" fill="#FFB6B6"/>
<path d="M303.219 225.498L344.794 194.796L338.026 454.172C338.026 454.172 303.702 389.063 277.597 385.887C277.597 385.887 280.498 378.477 282.432 374.242C284.365 370.007 287.266 348.834 287.266 348.834L300.802 234.497L303.219 225.498Z" fill="#6C63FF"/>
<path d="M336.575 493.872L299.835 352.01C299.835 352.01 305.636 237.673 344.794 194.796L353.979 210.147C353.979 210.147 363.061 211.623 361.42 218.296C359.78 224.969 397.487 470.581 397.487 470.581H358.406C358.406 470.581 354.946 493.872 336.575 493.872Z" fill="#2F2E41"/>
<path d="M303.219 225.498V221.263C303.219 221.263 285.332 222.851 284.365 234.497C283.399 246.142 275.664 291.665 283.399 319.191L273.73 336.129L266.962 376.359L288.233 382.711L299.835 285.017C299.835 285.017 307.57 233.438 303.219 225.498Z" fill="#2F2E41"/>
<path d="M337.542 427.176C337.542 427.176 353.979 479.051 319.172 480.109C284.365 481.168 230.142 481.168 230.142 481.168L203.15 497.048L210.885 612.444L156.741 613.503C156.741 613.503 139.338 471.64 154.807 454.701C170.277 437.762 214.752 419.765 214.752 419.765L265.995 391.181L280.407 372.024L337.542 427.176Z" fill="#2F2E41"/>
<path d="M339.515 187.915C341.569 187.116 360.795 162.443 344.794 146.097C344.794 146.097 338.558 126.129 313.692 128.224C288.827 130.318 282.132 145.21 282.132 152.949C282.132 160.687 288.716 169.388 288.716 169.388C288.716 169.388 284.045 148.121 294.565 149.168C305.085 150.215 302.216 154.404 309.867 152.31C317.518 150.215 325.169 153.357 325.169 153.357L332.82 156.499V169.275C332.82 169.275 336.156 166.344 336.401 169.275C336.646 172.207 339.515 187.915 339.515 187.915Z" fill="#2F2E41"/>
<path d="M173.178 449.408L172.211 482.227L134.504 474.816C134.504 474.816 150.694 445.64 148.4 437.466L173.178 449.408Z" fill="#FFB6B6"/>
<path d="M169.31 474.816C169.31 474.816 176.078 474.816 176.078 479.051C176.078 483.285 186.713 516.104 166.41 517.163C146.106 518.222 147.073 513.987 147.073 513.987C147.073 513.987 90.0284 542.571 69.7245 500.224C69.7245 500.224 64.8903 489.637 76.4925 487.52C88.0947 485.403 134.504 467.676 134.504 467.676C134.504 467.676 161.575 479.051 169.31 474.816Z" fill="#2F2E41"/>
<path d="M208.468 637.323C208.468 637.323 215.236 628.345 216.202 629.128C217.169 629.912 238.44 656.379 223.937 663.79C209.434 671.2 201.7 674.376 201.7 674.376L197.832 668.024C197.832 668.024 168.827 698.726 124.352 677.552C124.352 677.552 120.484 668.024 129.186 665.907C137.887 663.79 174.628 631.529 174.628 631.529C174.628 631.529 190.097 643.675 197.832 641.557C205.567 639.44 208.468 637.323 208.468 637.323Z" fill="#2F2E41"/>
<path d="M277.597 382.711C277.597 382.711 187.197 332.424 179.462 332.424C171.727 332.424 156.943 335.909 153.7 352.164C150.457 368.419 131.12 446.761 131.12 446.761L178.495 459.465L196.865 403.355L226.838 432.998L277.597 399.854V382.711Z" fill="#2F2E41"/>
<path d="M235.03 363.285C226.323 364.684 219.925 370.738 220.739 376.805C221.553 382.872 229.271 386.654 237.981 385.253C241.467 384.746 244.791 383.332 247.676 381.129L284.499 374.69L281.371 355.833L245.402 364.183C242.06 362.981 238.503 362.673 235.03 363.285Z" fill="#FFB6B6"/>
<path d="M362.374 212.141C362.374 212.141 386.083 221.532 381.344 245.904C376.605 270.276 372.618 339.155 369.265 342.144C365.912 345.133 364.476 361.489 343.866 367.745C323.256 374.001 264.113 401.693 264.113 401.693L256.485 357.058L322.63 326.086C322.63 326.086 322.987 324.694 325.485 319.156C327.984 313.619 328.64 319.75 327.328 307.488C326.017 295.225 334.41 228.523 334.41 228.523C334.41 228.523 336.28 208.541 362.374 212.141Z" fill="#2F2E41"/>
<path d="M148.283 14.7537C148.163 14.8808 148.053 15.0145 147.935 15.1427C129.496 -4.89231 99.8007 -5.06857 81.1646 14.7462C62.4622 34.639 61.8302 67.2955 79.7462 88.0381L79.7345 88.0505L80.1806 88.5535L146.156 162.935L214.546 90.2051L214.356 89.9907C214.47 89.8709 214.59 89.7597 214.704 89.6382C233.589 69.5544 234.03 36.5099 215.688 15.831C197.346 -4.84776 167.168 -5.33005 148.283 14.7537Z" fill="#6C63FF"/>
</svg>
